<svg width="25" height="25" viewBox="0 0 25 25" fill="none" xmlns="http://www.w3.org/2000/svg">
<g clip-path="url(#clip0_161_1085)">
<path d="M19.0694 8.23228C20.1043 9.32836 20.7429 10.8442 20.7429 12.5C20.7429 14.1558 20.1043 15.6716 19.0694 16.7677L17.3078 14.9021C17.9023 14.2957 18.2546 13.4328 18.2546 12.5C18.2546 11.5672 17.9023 10.7043 17.3078 10.0979L19.0694 8.23228ZM22.2182 4.87407C24.0679 6.83302 25.1909 9.51493 25.1909 12.4767C25.1909 15.4384 24.0459 18.1437 22.2182 20.0793L20.4566 18.2136C21.8439 16.7444 22.7027 14.7155 22.7027 12.4534C22.7027 10.2146 21.8439 8.18563 20.4566 6.6931L22.2182 4.87407ZM0 6.85634H3.10483V18.1203H0V6.85634ZM4.40401 6.85634L15.3039 0V25L4.40401 18.1203V6.85634Z" fill="#4CD235"/>
</g>
<defs>
<clipPath id="clip0_161_1085">
<rect width="25" height="25" fill="white"/>
</clipPath>
</defs>
</svg>
